<svg width="20" height="19" viewBox="0 0 20 19" fill="none" xmlns="http://www.w3.org/2000/svg">
<path opacity="0.4" d="M18.7682 11.7515C18.5838 11.4665 18.3216 11.1815 17.9818 11.001C17.71 10.868 17.5352 10.6495 17.3799 10.393C16.8848 9.576 17.176 8.5025 18.0013 8.018C18.9721 7.4765 19.2828 6.27 18.7197 5.3295L18.0692 4.2085C17.5158 3.268 16.3023 2.9355 15.3411 3.4865C14.4867 3.9425 13.3897 3.6385 12.8945 2.831C12.7392 2.565 12.6518 2.28 12.6712 1.995C12.7004 1.6245 12.5839 1.273 12.4091 0.988C12.0499 0.399 11.3994 0 10.681 0H9.31206C8.60333 0.019 7.95286 0.399 7.59364 0.988C7.40918 1.273 7.30238 1.6245 7.3218 1.995C7.34122 2.28 7.25384 2.565 7.0985 2.831C6.60336 3.6385 5.50629 3.9425 4.66164 3.4865C3.69079 2.9355 2.48692 3.268 1.92382 4.2085L1.27335 5.3295C0.719955 6.27 1.03063 7.4765 1.99178 8.018C2.81701 8.5025 3.10827 9.576 2.62284 10.393C2.45779 10.6495 2.28304 10.868 2.0112 11.001C1.68111 11.1815 1.38985 11.4665 1.23451 11.7515C0.875293 12.3405 0.89471 13.0815 1.25393 13.699L1.92382 14.839C2.28304 15.447 2.95293 15.827 3.65195 15.827C3.98204 15.827 4.37039 15.732 4.68106 15.542C4.92378 15.3805 5.21503 15.3235 5.53542 15.3235C6.49657 15.3235 7.30238 16.112 7.3218 17.0525C7.3218 18.145 8.21499 19 9.34119 19H10.6616C11.778 19 12.6712 18.145 12.6712 17.0525C12.7004 16.112 13.5062 15.3235 14.4673 15.3235C14.778 15.3235 15.0693 15.3805 15.3217 15.542C15.6324 15.732 16.011 15.827 16.3508 15.827C17.0401 15.827 17.71 15.447 18.0692 14.839L18.7488 13.699C19.0983 13.0625 19.1275 12.3405 18.7682 11.7515Z" fill="#8A92A6"/>
<path d="M10.0111 12.1884C8.4869 12.1884 7.25391 11.0009 7.25391 9.50942C7.25391 8.01792 8.4869 6.82092 10.0111 6.82092C11.5354 6.82092 12.7393 8.01792 12.7393 9.50942C12.7393 11.0009 11.5354 12.1884 10.0111 12.1884Z" fill="#8A92A6"/>
</svg>
